#!OML:ASF H:\Pregnant\Project 1\Capture day 1\Session 1\femalepreg.ASF
:FULLY-SPECIFIED
:DEGREES
540
root 3.76604 15.6721 13.2944 18.6969 -5.18047 -0.121127
lowerback -11.6084 -1.23606 -3.06221
upperback -5.69351 -1.34712 0.372986
thorax 0.635837 -0.620482 1.94884
lowerneck -23.7878 -5.06253 -1.50108
upperneck 17.7853 -7.84918 5.89831
head 9.87006 -3.02749 1.11551
rclavicle 1.34055e-014 5.96354e-016
rhumerus -32.9591 16.7037 -89.492
rradius 27.1802
rwrist -4.85958
rhand -13.7594 -15.0352
rfingers 7.12502
rthumb 12.3611 -44.6497
lclavicle 1.34055e-014 5.96354e-016
lhumerus -37.2068 -3.71758 80.2321
lradius 28.983
lwrist 34.6237
lhand -23.3211 -2.53109
lfingers 7.12502
lthumb 3.13297 27.4256
rfemur -25.4596 21.4296 1.89656
rtibia 26.125
rfoot -13.6702 -37.0203
rtoes -12.4264
lfemur -18.6967 -2.69614 -11.478
ltibia 11.2014
lfoot -2.8912 15.9609
ltoes -20.0699
541
root 3.79492 15.6655 13.2973 18.7504 -4.82839 -0.198761
lowerback -11.4459 -1.23866 -3.09277
upperback -5.65326 -1.35102 0.339144
thorax 0.589931 -0.621678 1.93274
lowerneck -23.9589 -5.09057 -1.47479
upperneck 17.5441 -7.88888 5.94848
head 9.8173 -3.04067 1.12067
rclavicle 1.52567e-014 -1.98785e-015
rhumerus -32.8831 17.0898 -89.4941
rradius 27.1706
rwrist -4.71773
rhand -13.6674 -14.9687
rfingers 7.12502
rthumb 12.4498 -44.5779
lclavicle 1.52567e-014 -1.98785e-015
lhumerus -37.069 -3.91661 80.2072
lradius 29.1691
lwrist 34.7161
lhand -23.3617 -2.52916
lfingers 7.12502
lthumb 3.09376 27.4281
rfemur -25.265 20.9226 2.0305
rtibia 25.9881
rfoot -13.4615 -36.8437
rtoes -12.9329
lfemur -19.681 -2.41592 -11.5357
ltibia 12.6464
lfoot -3.49396 15.4381
ltoes -20.1322
542
root 3.82481 15.659 13.2999 18.8262 -4.47882 -0.278131
lowerback -11.3022 -1.2411 -3.12878
upperback -5.60908 -1.3536 0.303932
thorax 0.558272 -0.622391 1.91812
lowerneck -24.1661 -5.12885 -1.41402
upperneck 17.3003 -7.94968 5.9792
head 9.76838 -3.06292 1.10964
rclavicle 2.45996e-015 -1.0138e-014
rhumerus -32.7631 17.4133 -89.4601
rradius 27.1272
rwrist -4.51825
rhand -13.6069 -14.901
rfingers 7.12502
rthumb 12.5081 -44.5067
lclavicle 2.45996e-015 -1.0138e-014
lhumerus -36.9078 -4.13389 80.1933
lradius 29.3581
lwrist 34.8123
lhand -23.4002 -2.55306
lfingers 7.12502
lthumb 3.05662 27.4048
rfemur -25.1034 20.371 2.15599
rtibia 25.8587
rfoot -13.2228 -36.626
rtoes -13.5026
lfemur -20.6083 -2.13106 -11.599
ltibia 13.9459
lfoot -4.03161 14.9124
ltoes -20.2255
543
root 3.85573 15.6527 13.3016 18.9237 -4.1276 -0.354047
lowerback -11.1652 -1.25092 -3.18471
upperback -5.574 -1.36426 0.27845
thorax 0.521609 -0.626512 1.92387
lowerneck -24.3662 -5.17352 -1.36401
upperneck 17.0516 -8.01753 6.01985
head 9.71759 -3.08845 1.10288
rclavicle -1.60519e-014 -7.7526e-015
rhumerus -32.6255 17.6943 -89.3873
rradius 27.06
rwrist -4.28694
rhand -13.585 -14.8476
rfingers 7.12502
rthumb 12.5292 -44.4519
lclavicle -1.60519e-014 -7.7526e-015
lhumerus -36.7454 -4.34282 80.1981
lradius 29.546
lwrist 34.8993
lhand -23.4374 -2.56997
lfingers 7.12502
lthumb 3.0207 27.3884
rfemur -24.9769 19.7667 2.27032
rtibia 25.7442
rfoot -12.966 -36.3614
rtoes -14.118
lfemur -21.5007 -1.8476 -11.6719
ltibia 15.1326
lfoot -4.51423 14.3847
ltoes -20.3513
544
root 3.88787 15.6459 13.3032 19.0206 -3.77448 -0.423586
lowerback -11.0248 -1.26888 -3.26041
upperback -5.54332 -1.38436 0.260755
thorax 0.479561 -0.634772 1.94789
lowerneck -24.5352 -5.21194 -1.3343
upperneck 16.7986 -8.07439 6.08196
head 9.66146 -3.10873 1.10917
rclavicle 4.47266e-016 1.86858e-014
rhumerus -32.489 17.9262 -89.2776
rradius 27.0042
rwrist -4.03466
rhand -13.5917 -14.7992
rfingers 7.12502
rthumb 12.5228 -44.4039
lclavicle 4.47266e-016 1.86858e-014
lhumerus -36.588 -4.54071 80.2179
lradius 29.7336
lwrist 34.9789
lhand -23.4724 -2.56473
lfingers 7.12502
lthumb 2.9869 27.3941
rfemur -24.8614 19.1151 2.38027
rtibia 25.653
rfoot -12.7054 -36.0501
rtoes -14.764
lfemur -22.3397 -1.58082 -11.7564
ltibia 16.2222
lfoot -4.95544 13.8648
ltoes -20.4904
545
root 3.92137 15.6387 13.3051 19.1107 -3.42095 -0.482769
lowerback -10.8774 -1.28854 -3.35194
upperback -5.51224 -1.4057 0.240907
thorax 0.434385 -0.643339 1.97862
lowerneck -24.6976 -5.2492 -1.34745
upperneck 16.5576 -8.12705 6.1937
head 9.61271 -3.12384 1.14021
rclavicle -7.15625e-015 -8.34896e-015
rhumerus -32.3488 18.0675 -89.1259
rradius 26.9652
rwrist -3.75145
rhand -13.6103 -14.746
rfingers 7.12502
rthumb 12.5049 -44.3519
lclavicle -7.15625e-015 -8.34896e-015
lhumerus -36.4204 -4.7369 80.2448
lradius 29.9077
lwrist 35.0336
lhand -23.4982 -2.54537
lfingers 7.12502
lthumb 2.96198 27.4138
rfemur -24.7565 18.423 2.48191
rtibia 25.5966
rfoot -12.4474 -35.6971
rtoes -15.445
lfemur -23.1212 -1.34308 -11.8537
ltibia 17.2203
lfoot -5.36191 13.36
ltoes -20.6195
546
root 3.95614 15.6312 13.3067 19.1983 -3.07406 -0.527019
lowerback -10.7247 -1.30773 -3.46211
upperback -5.478 -1.42507 0.214437
thorax 0.389643 -0.650694 2.01332
lowerneck -24.8542 -5.29009 -1.37274
upperneck 16.3189 -8.18561 6.32864
head 9.56588 -3.13987 1.18033
rclavicle 1.98288e-014 1.59028e-014
rhumerus -32.2011 18.1221 -88.9352
rradius 26.9485
rwrist -3.46588
rhand -13.6451 -14.6896
rfingers 7.12502
rthumb 12.4713 -44.2975
lclavicle 1.98288e-014 1.59028e-014
lhumerus -36.2331 -4.93843 80.2776
lradius 30.071
lwrist 35.076
lhand -23.528 -2.53627
lfingers 7.12502
lthumb 2.93322 27.4233
rfemur -24.6771 17.7033 2.56262
rtibia 25.582
rfoot -12.1903 -35.3112
rtoes -16.1543
lfemur -23.8518 -1.13656 -11.9671
ltibia 18.1298
lfoot -5.73146 12.8767
ltoes -20.7456
547
root 3.99228 15.6232 13.3086 19.2753 -2.72576 -0.546949
lowerback -10.5672 -1.32979 -3.59814
upperback -5.44021 -1.44629 0.180408
thorax 0.346423 -0.658632 2.05463
lowerneck -24.9858 -5.33339 -1.44595
upperneck 16.085 -8.24254 6.51542
head 9.52139 -3.15257 1.24659
rclavicle -1.74682e-014 -2.78299e-015
rhumerus -32.0553 18.0638 -88.6974
rradius 26.9701
rwrist -3.17273
rhand -13.6882 -14.6167
rfingers 7.12502
rthumb 12.4298 -44.2271
lclavicle -1.74682e-014 -2.78299e-015
lhumerus -36.0352 -5.13697 80.3147
lradius 30.2247
lwrist 35.0935
lhand -23.5624 -2.51467
lfingers 7.12502
lthumb 2.89999 27.4454
rfemur -24.6135 16.96 2.61674
rtibia 25.6191
rfoot -11.9447 -34.9023
rtoes -16.8929
lfemur -24.5244 -0.97601 -12.103
ltibia 18.9498
lfoot -6.06429 12.4147
ltoes -20.8532
548
root 4.02979 15.6152 13.3103 19.3558 -2.39478 -0.546745
lowerback -10.4138 -1.34523 -3.75498
upperback -5.3953 -1.45685 0.13439
thorax 0.312175 -0.661234 2.09627
lowerneck -25.1217 -5.37887 -1.47958
upperneck 15.8501 -8.30542 6.65783
head 9.47366 -3.1708 1.29013
rclavicle 7.85199e-015 1.59028e-015
rhumerus -31.886 17.8887 -88.4138
rradius 26.9923
rwrist -2.8813
rhand -13.7734 -14.5343
rfingers 7.12502
rthumb 12.3476 -44.1496
lclavicle 7.85199e-015 1.59028e-015
lhumerus -35.8086 -5.34317 80.3558
lradius 30.3616
lwrist 35.0925
lhand -23.6059 -2.55319
lfingers 7.12502
lthumb 2.85795 27.4074
rfemur -24.5945 16.2027 2.63599
rtibia 25.712
rfoot -11.6912 -34.4677
rtoes -17.6653
lfemur -25.1513 -0.848124 -12.2607
ltibia 19.684
lfoot -6.36014 11.9825
ltoes -20.9487
